<?xml version="1.0" standalone="no"?>
<!DOCTYPE svg PUBLIC "-//W3C//DTD SVG 20010904//EN"
 "http://www.w3.org/TR/2001/REC-SVG-20010904/DTD/svg10.dtd">
<svg version="1.0" xmlns="http://www.w3.org/2000/svg"
 width="564.000000pt" height="423.000000pt" viewBox="0 0 564.000000 423.000000"
 preserveAspectRatio="xMidYMid meet">
<metadata>
Created by potrace 1.16, written by Peter Selinger 2001-2019
</metadata>
<g transform="translate(0.000000,423.000000) scale(0.100000,-0.100000)"
fill="#000000" stroke="none">
<path d="M2825 3387 c-56 -26 -115 -113 -115 -172 0 -6 -13 -16 -30 -22 -63
-24 -64 -106 -3 -174 36 -40 59 -47 93 -29 16 9 29 1 81 -50 86 -85 95 -82 94
28 0 70 -4 92 -18 106 -24 24 -21 44 7 57 23 11 23 13 10 45 -23 54 -18 125
11 169 15 20 24 39 22 41 -12 13 -125 13 -152 1z"/>
<path d="M1022 2790 c2 -82 0 -150 -4 -150 -19 0 -48 -67 -48 -110 0 -47 28
-140 42 -140 5 0 17 14 27 31 l19 31 17 -58 c38 -128 44 -175 28 -219 -8 -22
-18 -83 -21 -135 l-7 -95 -41 -3 -41 -3 -6 -97 c-4 -53 -7 -131 -7 -172 0 -75
0 -76 -27 -78 -105 -8 -391 -46 -403 -54 -11 -7 -9 -7 7 -3 12 3 24 1 28 -5 3
-5 0 -10 -9 -10 -12 0 -11 -7 5 -40 10 -21 19 -49 19 -60 0 -12 5 -31 11 -42
9 -16 8 -23 -2 -29 -11 -7 -10 -9 3 -9 11 0 15 -5 12 -15 -8 -20 3 -19 62 4
27 11 81 32 119 47 39 14 126 50 195 80 69 29 163 68 210 88 l85 34 0 183 0
183 -45 -2 c-43 -3 -46 -2 -57 30 -6 18 -14 94 -18 168 -6 124 -4 142 19 230
24 92 60 329 51 338 -6 6 -11 -25 -25 -133 -6 -50 -18 -115 -25 -145 l-14 -55
4 70 c7 100 15 443 10 425 -2 -8 -9 -116 -15 -240 -14 -276 -18 -304 -46 -308
-33 -5 -58 87 -59 216 0 90 -2 105 -19 118 -17 12 -19 28 -20 149 0 74 -4 135
-9 135 -6 0 -8 -64 -5 -150z"/>
<path d="M3261 2751 c-8 -6 12 -30 65 -77 113 -101 204 -192 204 -203 0 -21
-60 -78 -112 -107 -48 -26 -62 -29 -148 -29 -111 0 -194 22 -234 61 -14 15
-34 52 -42 82 -17 57 -66 154 -81 159 -4 1 -14 -1 -22 -6 -12 -8 -7 -22 26
-78 53 -90 57 -103 38 -154 -35 -96 -67 -196 -75 -240 -8 -41 -5 -55 20 -115
31 -74 55 -192 47 -224 -4 -15 0 -20 16 -20 31 0 149 33 237 65 123 45 218 65
311 65 l87 0 15 88 c25 140 31 235 17 306 -11 58 -20 74 -98 172 -80 99 -192
216 -239 249 -11 7 -25 10 -32 6z"/>
<path d="M936 2723 c-39 -3 -62 -14 -120 -55 -69 -49 -70 -50 -34 -45 l37 6
-34 -48 c-36 -50 -74 -127 -75 -149 0 -31 111 65 233 199 60 67 68 82 40 73
-10 -3 -7 2 7 10 14 8 18 15 10 14 -8 -1 -37 -3 -64 -5z"/>
<path d="M1868 1825 c-4 -4 -41 -76 -82 -159 -214 -436 -246 -512 -246 -591
l0 -45 -572 0 -573 0 35 -21 c135 -83 406 -201 654 -286 l158 -54 1357 6
c1697 7 2081 13 2081 30 0 8 -21 31 -47 52 -27 21 -50 40 -53 43 -3 3 -32 28
-65 55 -33 28 -62 52 -65 55 -3 3 -38 34 -79 68 l-74 64 -62 -4 -62 -3 5 65
c3 56 1 69 -18 93 -50 63 -192 90 -485 91 -115 0 -236 -4 -267 -8 l-58 -7 0
38 c0 64 -14 70 -44 19 -57 -97 -170 -123 -304 -70 -116 46 -252 158 -268 219
-5 19 0 33 17 52 13 14 17 22 9 18 -35 -20 -120 -82 -188 -137 -148 -121 -211
-148 -502 -217 -91 -22 -173 -43 -182 -46 -17 -7 -17 -4 -2 36 28 80 144 532
144 562 0 3 -24 8 -52 11 -62 8 -95 27 -100 57 -2 11 -6 18 -10 14z m963 -826
l29 -31 161 17 c89 9 163 14 166 11 3 -2 9 -24 14 -48 5 -24 12 -50 15 -59 4
-14 -26 -17 -248 -28 -139 -6 -313 -17 -385 -22 -73 -6 -145 -8 -160 -4 -27 6
-28 7 -8 22 43 32 113 61 164 67 63 8 92 22 150 70 24 20 50 36 58 36 8 0 28
-14 44 -31z"/>
</g>
</svg>
