<svg width="106" height="200" viewBox="0 0 106 200" fill="none" xmlns="http://www.w3.org/2000/svg">
<path d="M8.10791 109.78C8.10791 109.78 32.794 87.5198 32.0194 61.1301C32.0194 61.1301 8.48897 88.8619 8.10791 109.78Z" fill="#0033A9"/>
<path d="M22.1299 169.669C22.1299 169.669 21.2023 177.904 27.2305 181.478C33.2588 185.051 39.4432 186.76 41.9154 187.226C44.3891 187.693 48.2544 186.294 50.1097 187.226C51.965 188.159 54.4435 187.14 54.5903 189.247C54.6309 189.829 53.066 189.887 53.066 189.887C53.066 189.887 53.1144 190.642 51.4434 190.877C51.4434 190.877 51.3841 192.102 50.458 192.16C50.458 192.16 50.2253 193.208 49.5881 193.034C49.5881 193.034 49.6459 194.083 48.081 194.083C46.5146 194.083 45.6463 195.656 43.4427 196.646C41.2391 197.637 35.5732 197.579 32.4373 197.52C29.2982 197.462 27.5007 197.288 22.9217 198.627C18.3428 199.968 13.8794 196.704 14.8071 192.858C15.7332 189.014 12.313 169.669 12.313 169.669H22.1299Z" fill="#FFBC9F"/>
<path d="M17.647 185.751C17.647 185.751 18.42 188.741 18.3419 189.887C18.2654 191.033 19.2696 192.568 20.583 192.306" stroke="#2B2A2A" stroke-width="1.33333" stroke-miterlimit="10" stroke-linecap="round" stroke-linejoin="round"/>
<path d="M88.1147 74.3437C91.8254 86.7726 90.1465 110.627 87.6743 124.61C85.2006 138.595 78.0901 160.814 71.5964 171.767C65.1044 182.72 60.4676 191.732 58.6123 193.908C56.757 196.083 45.472 199.5 42.9217 199.5C40.3714 199.5 28.9319 199.191 29.8595 197.016C30.3405 195.885 36.5015 197.372 40.3714 196.782C43.9493 196.237 45.2175 193.584 46.5543 193.286C49.3373 192.664 50.2602 188.935 54.5909 189.247C58.9215 189.556 62.6322 159.415 67.5781 149.471C72.5257 139.527 74.0702 138.595 74.0702 135.797C74.0702 133.333 74.5512 105.515 75.5117 90.441" fill="#EDEDED"/>
<path d="M53.0666 189.887C53.0666 189.887 51.4955 188.751 49.9229 189.071" stroke="#2B2A2A" stroke-width="1.33333" stroke-miterlimit="10" stroke-linecap="round" stroke-linejoin="round"/>
<path d="M51.4428 190.878C51.4428 190.878 50.284 190.121 49.3892 190.324" stroke="#2B2A2A" stroke-width="1.33333" stroke-miterlimit="10" stroke-linecap="round" stroke-linejoin="round"/>
<path d="M50.4573 192.16C50.4573 192.16 49.7373 191.488 49.0361 191.46" stroke="#2B2A2A" stroke-width="1.33333" stroke-miterlimit="10" stroke-linecap="round" stroke-linejoin="round"/>
<path d="M49.5875 193.034C49.5875 193.034 49.0971 192.422 48.4287 192.306" stroke="#2B2A2A" stroke-width="1.33333" stroke-miterlimit="10" stroke-linecap="round" stroke-linejoin="round"/>
<path d="M53.5438 158.95C57.2341 175.039 49.9409 197.345 49.9409 197.345C101.167 201.349 109.127 168.373 104.832 142.636C100.889 119.014 84.5392 113.465 84.5392 113.465C82.4356 113.127 80.4225 112.962 78.4938 112.962C57.7261 112.966 47.3766 132.078 53.5438 158.95Z" fill="url(#paint0_linear_0_25)"/>
<path d="M97.5292 142.914C100.798 126.152 92.5346 120.632 87.6536 117.771C109.039 139.642 86.2347 168.789 72.1592 180.629C79.4807 176.106 94.2601 159.676 97.5292 142.914Z" fill="url(#paint1_linear_0_25)"/>
<path d="M96.8323 140.842C100.144 125.922 91.772 121.008 86.8267 118.462C108.494 137.929 85.3891 163.874 71.1284 174.412C78.5463 170.386 93.5201 155.762 96.8323 140.842Z" fill="url(#paint2_linear_0_25)"/>
<path d="M100.268 150.375C103.58 131.402 95.208 125.153 90.2628 121.916C111.93 146.67 88.8252 179.661 74.5645 193.062C81.9823 187.943 96.9561 169.347 100.268 150.375Z" fill="url(#paint3_linear_0_25)"/>
<path d="M95.1145 139.737C98.4267 123.251 90.0542 117.822 85.1089 115.009C106.776 136.519 83.6714 165.185 69.4106 176.83C76.8285 172.381 91.8023 156.223 95.1145 139.737Z" fill="url(#paint4_linear_0_25)"/>
<path d="M69.6236 94.2464C69.0723 94.2872 67.9213 102.922 67.5996 104.561C67.6027 104.544 67.6059 104.525 67.609 104.508C67.8573 104.577 68.104 104.646 68.3555 104.721C74.5211 106.547 81.9065 110.072 83.5104 115.988C83.5135 115.996 83.5151 116.006 83.5166 116.013C83.8743 115.563 84.2975 115.172 84.7629 114.841C84.7566 114.868 84.7551 114.894 84.7473 114.919C87.2273 108.297 88.0238 84.924 88.4017 83.6667C88.4017 83.6667 80.3667 93.4616 69.6236 94.2464Z" fill="#FFBC9F"/>
<path d="M78.3021 120.844C77.8128 121.174 83.5179 121.568 83.1365 122.025C83.1309 122.032 83.1253 122.038 83.1197 122.045C83.1179 122.038 83.116 122.028 83.1141 122.019C81.5978 115.944 74.1371 112.195 67.8895 110.205C67.6253 110.121 67.3611 110.04 67.1025 109.961C64.1591 109.079 61.5618 108.595 60.1087 108.449C59.0129 108.339 58.2377 107.524 56.2604 108.852C56.0407 113.056 54.6569 114.866 54.0634 119.03C53.6838 121.704 53.5318 126.129 53.5318 126.129L52.1289 126.826C50.674 127.548 49.9792 127.929 50.9876 129.208L54.5028 132.527C55.6805 134.023 55.9616 136.204 56.2016 138.096C56.3114 138.953 56.4342 139.957 56.5644 141.057C57.0463 145.174 57.0072 149.193 57.0072 149.193C57.0072 149.193 63.2902 149.622 67.1322 143.866C67.8411 142.805 68.4662 141.533 68.9555 140.011C69.8393 137.249 72.4459 125.928 82.6713 129.43C83.5216 130.76 78.717 131.77 80.3654 132.147C83.5692 132.883 86.8624 130.91 87.7368 127.723C88.695 124.238 86.5498 120.698 83.0874 119.93C81.4166 119.557 79.757 119.905 78.4174 120.762C78.3784 120.79 78.3411 120.818 78.3021 120.844Z" fill="#FFBC9F"/>
<path d="M81.346 128.842C80.9876 128.926 80.6287 128.704 80.5444 128.346C80.4601 127.987 80.6823 127.628 81.0408 127.544L81.346 128.842ZM80.6941 123.588C80.6941 121.624 82.286 120.032 84.2496 120.032C86.2133 120.032 87.8052 121.624 87.8052 123.588C87.8052 125.551 86.2133 127.143 84.2496 127.143C82.286 127.143 80.6941 125.551 80.6941 123.588ZM81.1934 128.193C81.0408 127.544 81.0405 127.544 81.0402 127.544C81.0401 127.544 81.0398 127.544 81.0397 127.544C81.0394 127.544 81.0391 127.545 81.0389 127.545C81.0385 127.545 81.0383 127.545 81.0384 127.545C81.0384 127.545 81.0394 127.544 81.0411 127.544C81.0446 127.543 81.0514 127.541 81.0612 127.539C81.0808 127.533 81.1125 127.525 81.1543 127.512C81.2382 127.485 81.3616 127.443 81.5097 127.382C81.8084 127.258 82.1927 127.062 82.5531 126.771C83.2459 126.21 83.8775 125.29 83.5934 123.705L84.9059 123.47C85.2902 125.615 84.3936 126.997 83.3913 127.807C82.904 128.201 82.3989 128.457 82.0201 128.614C81.8294 128.693 81.6671 128.748 81.5499 128.785C81.4912 128.803 81.4435 128.817 81.4089 128.826C81.3916 128.831 81.3775 128.834 81.367 128.837C81.3617 128.838 81.3573 128.839 81.3538 128.84C81.352 128.841 81.3505 128.841 81.3492 128.841C81.3485 128.841 81.3479 128.842 81.3474 128.842C81.3471 128.842 81.3468 128.842 81.3466 128.842C81.3463 128.842 81.346 128.842 81.1934 128.193Z" fill="#FF9E81"/>
<path d="M67.6556 105.277C67.6369 105.371 67.6182 105.465 67.598 105.56C67.5793 105.66 67.5591 105.764 67.5373 105.865C67.4984 106.061 67.4579 106.26 67.4175 106.462C67.4004 106.54 67.3848 106.617 67.3692 106.697C67.3443 106.82 67.3179 106.944 67.293 107.069C67.2759 107.152 67.2587 107.234 67.2416 107.317C67.2167 107.439 67.1918 107.562 67.1669 107.688C67.1467 107.777 67.1296 107.866 67.1109 107.955C67.016 108.413 66.9195 108.874 66.823 109.339C66.8121 109.386 66.8028 109.433 66.7934 109.48C66.7607 109.632 66.7296 109.782 66.6985 109.934C66.6845 109.992 66.6736 110.052 66.6611 110.11C66.9164 110.18 67.1747 110.254 67.4346 110.332C73.5772 112.153 79.958 117.05 81.5563 122.952L82.5601 121.574C82.9227 121.12 83.3507 120.727 83.8222 120.397C83.8238 120.392 83.8238 120.387 83.8253 120.383C83.858 120.211 83.8923 120.029 83.9265 119.841C83.9327 119.805 83.9405 119.771 83.9467 119.735C83.9654 119.634 83.9856 119.533 84.0043 119.431C84.0137 119.381 84.023 119.332 84.0323 119.281C84.0541 119.171 84.0759 119.058 84.0961 118.944C84.1055 118.9 84.1148 118.855 84.1226 118.809C84.1444 118.7 84.1646 118.59 84.1864 118.479C84.2051 118.38 84.2237 118.28 84.244 118.18C84.272 118.036 84.2985 117.892 84.328 117.743C84.3436 117.659 84.3607 117.574 84.3778 117.488C84.4012 117.363 84.4261 117.236 84.451 117.108C84.4603 117.056 84.4712 117.006 84.4805 116.954C84.5039 116.832 84.5288 116.71 84.5521 116.585C84.5661 116.517 84.5801 116.449 84.5926 116.381C84.6159 116.261 84.6408 116.139 84.6642 116.018C84.6735 115.973 84.6813 115.926 84.6906 115.879C84.7451 115.6 84.8011 115.317 84.8572 115.032C84.8634 115.007 84.868 114.98 84.8727 114.953C84.4105 115.284 83.9888 115.674 83.6308 116.123C83.6293 116.115 83.6277 116.106 83.6261 116.098C82.0278 110.197 74.6666 106.681 68.524 104.86C68.2734 104.787 68.026 104.716 67.7801 104.647C67.777 104.665 67.7739 104.683 67.7692 104.701C67.7521 104.791 67.7334 104.887 67.7147 104.981C67.6945 105.079 67.6758 105.177 67.6556 105.277Z" fill="#E0695F"/>
<g opacity="0.5">
<path d="M59.8567 128.377C61.0389 128.851 61.5761 126.99 61.5761 126.99C61.5761 126.99 62.2071 128.82 63.3627 128.288C64.5184 127.754 62.2524 124.036 61.5012 124.054C60.75 124.073 58.676 127.903 59.8567 128.377Z" fill="#FF222D"/>
</g>
<path d="M64.328 136.437C64.328 136.437 63.5399 135.259 60.7302 135.072C57.9201 134.885 56.8453 135.775 56.8453 135.775C56.8453 135.775 61.7784 135.921 64.328 136.437" fill="#2B2A2A"/>
<path d="M58.1626 138.847C58.1626 138.847 58.774 138.914 60.449 139.017C62.1234 139.119 63.6885 138.734 63.6885 138.734C63.6885 138.734 62.1273 140.178 60.2099 140.185C58.2926 140.192 58.1626 138.847 58.1626 138.847Z" fill="#2B2A2A"/>
<path d="M57.8513 120.978C57.8513 120.978 58.5413 120.599 56.9183 120.03C55.2953 119.461 53.1808 119.471 53.1808 119.471C53.1808 119.471 55.202 120.338 55.7658 120.479C56.3291 120.62 56.7222 120.378 56.7222 120.378C56.7222 120.378 54.6568 120.136 55.3613 120.362C56.0656 120.588 57.8513 120.978 57.8513 120.978Z" fill="#EE876D"/>
<path d="M57.5283 119.659C57.5283 119.659 56.6077 118.284 54.9907 117.791C53.3736 117.297 53.8758 116.845 53.8758 116.845C53.8758 116.845 53.5178 116.236 55.2946 116.845C57.0721 117.453 57.5283 119.659 57.5283 119.659Z" fill="#FF9E81"/>
<path d="M15.8692 169.669C15.8692 169.669 14.9415 177.904 20.9698 181.478C26.998 185.051 33.1824 186.76 35.6546 187.226C38.1284 187.693 41.9936 186.294 43.849 187.226C45.7043 188.159 48.1827 187.14 48.3295 189.247C48.3701 189.829 46.8053 189.887 46.8053 189.887C46.8053 189.887 46.8537 190.642 45.1827 190.877C45.1827 190.877 45.1233 192.102 44.1972 192.16C44.1972 192.16 43.9645 193.208 43.3273 193.034C43.3273 193.034 43.3851 194.083 41.8203 194.083C40.2539 194.083 39.3856 195.656 37.182 196.646C34.9784 197.637 29.3125 197.579 26.175 197.52C23.0375 197.462 21.24 197.288 16.661 198.627C12.082 199.968 7.61709 196.704 8.54631 192.858C9.47241 189.014 6.05225 169.669 6.05225 169.669H15.8692Z" fill="#FF9E81"/>
<path d="M11.3862 185.751C11.3862 185.751 12.1593 188.741 12.0812 189.887C12.0047 191.033 13.0089 192.568 14.3223 192.306" stroke="#FFBC9F" stroke-width="1.33333" stroke-miterlimit="10" stroke-linecap="round" stroke-linejoin="round"/>
<path d="M10.921 111.403C9.29833 117.698 8.13954 133.079 9.0672 138.672C9.9933 144.266 11.6175 170.835 11.6175 170.835C16.7181 172.932 23.6755 170.835 23.6755 170.835C22.284 167.572 26.2258 131.681 26.1743 122.358C26.1243 113.036 29.0088 112.803 28.545 105.344C28.0811 97.8866 32.7194 83.2036 34.3405 72.9488C35.9647 62.6939 36.6596 36.1252 36.6596 36.1252L8.73768 35.4251C2.70789 86.0008 12.5451 105.112 10.921 111.403Z" fill="url(#paint5_linear_0_25)"/>
<path d="M1.95566 12.1196C-4.84562 28.5904 8.44929 99.7512 6.28475 107.52C4.12021 115.288 -1.13654 127.097 1.64644 135.798C4.42943 144.5 5.66629 172.155 5.66629 172.155C13.3952 175.574 18.6504 172.155 18.6504 172.155C17.1043 170.912 16.1782 131.136 18.6504 121.502C21.1242 111.869 22.9795 102.547 22.9795 94.4691C22.9795 86.3899 34.1099 42.5733 34.1099 42.5733L37.3567 43.5041C47.5594 36.3573 52.3507 12.1196 52.3507 12.1196C43.4536 4.11884 32.431 -6.10352e-05 22.8202 -6.10352e-05C13.3937 -6.10352e-05 5.32429 3.96501 1.95566 12.1196Z" fill="url(#paint6_linear_0_25)"/>
<path d="M67.7494 67.8217C75.038 59.08 83.6852 64.8722 88.1142 74.3438C88.5827 78.7373 88.7686 83.4386 87.905 86.837C86.2823 93.2257 85.3547 100.217 85.3547 100.217C85.3547 100.217 76.9495 101.247 71.0571 97.9756C66.6312 90.9056 59.9658 77.1582 67.7494 67.8217Z" fill="#FF9E81"/>
<path d="M52.0591 13.4675C60.0629 13.2352 70.9778 37.2908 70.9778 37.2908C80.2544 51.2737 86.0499 59.6638 86.7464 64.5581C87.0713 66.8498 87.7022 70.4758 88.1145 74.3436C83.6855 64.872 75.0367 59.0798 67.7497 67.8215C59.9645 77.1581 66.6315 90.9055 71.0574 97.9754C70.0985 97.4448 69.2052 96.8028 68.4275 96.0211C62.8631 90.4283 52.1966 79.4749 47.0944 74.5806C41.9938 69.6847 52.3512 64.792 52.3512 64.792C52.3512 64.792 50.7426 64.1594 48.3297 60.3623C48.3297 60.3623 42.2265 51.7399 42.2265 46.8456C42.2265 45.009 40.5618 43.6324 38.48 42.6294C46.5197 35.7604 50.9331 18.4309 52.0591 13.4675Z" fill="#E6E0F1"/>
<path d="M88.4022 83.6669C88.524 96.6436 83.8857 110.628 81.412 124.611C78.9382 138.595 71.8277 160.813 65.3356 171.766C58.8436 182.721 54.2053 191.733 52.3515 193.907C50.4962 196.084 39.2112 199.501 36.6609 199.501C34.1091 199.501 22.671 199.19 23.5971 197.015C24.0797 195.885 30.2407 197.373 34.1091 196.782C37.6885 196.236 38.9566 193.585 40.2935 193.285C43.0765 192.665 43.9994 188.936 48.3301 189.246C52.6592 189.557 56.3698 159.414 61.3173 149.47C66.2633 139.526 67.8094 138.595 67.8094 135.798C67.8094 133.332 68.2904 105.514 69.2509 90.4417" fill="#FFBC9F"/>
<path fill-rule="evenodd" clip-rule="evenodd" d="M61.9982 148.364L47.0752 187.035L54.2911 191.87L66.0165 170.66C72.5086 159.706 79.6191 137.489 82.0928 123.504C82.8924 118.985 83.9181 114.465 84.9362 109.979C87.0677 100.587 89.1655 91.3428 89.0831 82.5605C89.455 75.8833 87.2094 62.6671 75.2516 63.2197C60.3044 63.9104 61.7289 85.1507 68.4903 93.785C67.5298 108.857 67.5203 131.9 67.5203 134.366C67.5203 137.163 66.9442 138.42 61.9982 148.364Z" fill="#E6E0F1"/>
<path d="M46.8048 189.888C46.8048 189.888 45.2337 188.751 43.6626 189.071" stroke="#FFBC9F" stroke-width="1.33333" stroke-miterlimit="10" stroke-linecap="round" stroke-linejoin="round"/>
<path d="M45.1821 190.877C45.1821 190.877 44.0217 190.121 43.1284 190.323" stroke="#FFBC9F" stroke-width="1.33333" stroke-miterlimit="10" stroke-linecap="round" stroke-linejoin="round"/>
<path d="M44.197 192.16C44.197 192.16 43.4755 191.488 42.7759 191.46" stroke="#FFBC9F" stroke-width="1.33333" stroke-miterlimit="10" stroke-linecap="round" stroke-linejoin="round"/>
<path d="M43.3273 193.034C43.3273 193.034 42.8369 192.422 42.1685 192.305" stroke="#FFBC9F" stroke-width="1.33333" stroke-miterlimit="10" stroke-linecap="round" stroke-linejoin="round"/>
<defs>
<linearGradient id="paint0_linear_0_25" x1="105.833" y1="155.32" x2="49.9423" y2="155.32" gradientUnits="userSpaceOnUse">
<stop stop-color="#6D2E55"/>
<stop offset="0.334039" stop-color="#6D2E55"/>
<stop offset="1" stop-color="#001226"/>
</linearGradient>
<linearGradient id="paint1_linear_0_25" x1="94.8049" y1="100.81" x2="65.0614" y2="176.371" gradientUnits="userSpaceOnUse">
<stop stop-color="#6D2E55"/>
<stop offset="0.231697" stop-color="#6D2E55"/>
<stop offset="1" stop-color="#001226"/>
</linearGradient>
<linearGradient id="paint2_linear_0_25" x1="94.0721" y1="103.365" x2="70.078" y2="172.746" gradientUnits="userSpaceOnUse">
<stop stop-color="#6D2E55"/>
<stop offset="0.231697" stop-color="#6D2E55"/>
<stop offset="1" stop-color="#001226"/>
</linearGradient>
<linearGradient id="paint3_linear_0_25" x1="97.5081" y1="102.718" x2="61.1092" y2="185.488" gradientUnits="userSpaceOnUse">
<stop stop-color="#6D2E55"/>
<stop offset="0.231697" stop-color="#6D2E55"/>
<stop offset="1" stop-color="#001226"/>
</linearGradient>
<linearGradient id="paint4_linear_0_25" x1="92.3543" y1="98.3267" x2="63.7356" y2="173.222" gradientUnits="userSpaceOnUse">
<stop stop-color="#6D2E55"/>
<stop offset="0.231697" stop-color="#6D2E55"/>
<stop offset="1" stop-color="#001226"/>
</linearGradient>
<linearGradient id="paint5_linear_0_25" x1="21.7102" y1="171.767" x2="21.7102" y2="35.4264" gradientUnits="userSpaceOnUse">
<stop stop-color="#6D2E55"/>
<stop offset="0.334039" stop-color="#6D2E55"/>
<stop offset="1" stop-color="#001226"/>
</linearGradient>
<linearGradient id="paint6_linear_0_25" x1="26.1758" y1="173.674" x2="26.1758" y2="-0.00026408" gradientUnits="userSpaceOnUse">
<stop stop-color="#001226"/>
<stop offset="0.665961" stop-color="#6D2E55"/>
<stop offset="1" stop-color="#6D2E55"/>
</linearGradient>
</defs>
</svg>
