<svg width="379" height="196" viewBox="0 0 379 196" fill="none" xmlns="http://www.w3.org/2000/svg">
<path d="M317.754 175.701C317.754 175.701 327.357 176.842 330.551 174.346C333.746 171.849 341.196 168.581 345.515 174.047C349.833 179.513 354.431 183.416 360.272 184.748C366.115 186.082 371.11 186.676 373.023 189.14C374.935 191.605 380.873 193.613 378.411 194.095C377.396 194.294 317.252 185.069 317.252 185.069L317.754 175.701Z" fill="#FF9E81"/>
<path d="M29.9351 58.7216C29.3568 58.6967 27.9767 51.3972 27.6064 50.0135L27.6179 50.0602C27.8756 49.9964 28.1333 49.9327 28.3948 49.8658C34.8044 48.2147 42.4585 45.1037 44.0142 40.0632C44.0161 40.0555 44.018 40.0477 44.0199 40.0415C44.4035 40.4193 44.854 40.7426 45.3465 41.0132C45.3408 40.993 45.335 40.9696 45.3274 40.9463C46.2875 44.5082 48.9941 54.1584 49.4179 55.2188C49.4179 55.2188 41.1873 59.2067 29.9351 58.7216Z" fill="#FF9E81"/>
<path d="M37.8219 36.407C37.3199 36.1334 43.1729 35.8069 42.7816 35.4275C42.7759 35.4213 42.7702 35.4166 42.7644 35.4104C42.7625 35.4166 42.7606 35.4244 42.7587 35.4322C41.2031 40.4726 33.5489 43.5837 27.1393 45.2348C26.8683 45.3048 26.5972 45.3716 26.3319 45.4369C23.3123 46.1692 20.6476 46.5703 19.1569 46.6916C18.0326 46.7833 17.2374 47.459 15.2088 46.3575C14.9834 42.8692 13.5637 41.3669 12.9548 37.9123C12.5654 35.6937 12.4094 32.0219 12.4094 32.0219L10.9702 31.4435C9.47754 30.8449 8.76468 30.529 9.79923 29.4671L13.4056 26.7132C14.6138 25.4725 14.9022 23.6629 15.1485 22.0926C15.2611 21.3821 15.3871 20.5487 15.5207 19.6361C16.0151 16.2203 15.975 12.8854 15.975 12.8854C15.975 12.8854 22.4209 12.5294 26.3624 17.3055C27.0897 18.1855 27.731 19.2412 28.233 20.5036C29.1397 22.7953 31.8139 32.189 42.3044 29.2832C43.1767 28.1794 38.2476 27.3414 39.9387 27.0289C43.2256 26.4179 46.6041 28.055 47.5012 30.6996C48.4842 33.5914 46.2834 36.5283 42.7312 37.1657C41.0172 37.4751 39.3146 37.1859 37.9402 36.4754C37.9002 36.4521 37.862 36.4288 37.8219 36.407Z" fill="#FFBC9F"/>
<path d="M27.4749 49.527C27.452 49.4477 27.4329 49.3669 27.41 49.2876C27.3871 49.2021 27.3623 49.115 27.3394 49.0295C27.2936 48.8616 27.2477 48.6952 27.2 48.5227C27.1829 48.4574 27.1638 48.3921 27.1447 48.3252C27.118 48.2195 27.0874 48.1153 27.0569 48.0081C27.0378 47.9396 27.0187 47.8712 26.9996 47.8013C26.9691 47.6956 26.9423 47.5914 26.9118 47.4872C26.8908 47.411 26.8698 47.3349 26.8488 47.2587C26.74 46.8715 26.6293 46.4813 26.5186 46.088C26.5071 46.0491 26.4938 46.0087 26.4823 45.9698C26.448 45.8408 26.4098 45.7133 26.3754 45.5842C26.3602 45.536 26.3468 45.4847 26.3315 45.4365C26.5988 45.3712 26.8698 45.3044 27.1389 45.2344C33.5505 43.5848 41.2027 40.4738 42.7603 35.4334L42.7832 35.4287C43.1745 35.8081 43.6326 36.1345 44.1346 36.4082C44.1346 36.4097 44.1365 36.4144 44.1365 36.4175C44.1727 36.5652 44.2128 36.7191 44.2529 36.8762C44.2625 36.9072 44.2701 36.9368 44.2777 36.9679C44.2987 37.0518 44.3216 37.1373 44.3445 37.2244C44.356 37.2664 44.3655 37.3099 44.377 37.3519C44.3999 37.4452 44.4266 37.54 44.4514 37.638C44.461 37.6737 44.4705 37.7126 44.4801 37.7515C44.5049 37.8432 44.5297 37.9365 44.5545 38.0298C44.5755 38.1137 44.5984 38.1992 44.6194 38.2832C44.6518 38.406 44.6862 38.5288 44.7167 38.6532C44.7358 38.7247 44.7549 38.7963 44.774 38.8693C44.8026 38.975 44.8313 39.0823 44.8599 39.1927C44.8713 39.2347 44.8828 39.2767 44.8943 39.3218C44.9229 39.4244 44.9496 39.5285 44.9782 39.6343L45.0221 39.8068C45.0508 39.9079 45.0794 40.0105 45.1042 40.1131C45.1157 40.1535 45.1271 40.1924 45.1367 40.2313C45.1997 40.4676 45.2646 40.707 45.3295 40.9464C45.3352 40.9698 45.3409 40.9931 45.3466 41.0133C44.8542 40.7428 44.4037 40.4194 44.02 40.0416C44.0181 40.0478 44.0162 40.0556 44.0143 40.0634C42.4587 45.1038 34.8045 48.2148 28.3949 49.866C28.1334 49.9328 27.8757 49.9966 27.618 50.0603L27.6066 50.0137C27.5856 49.9375 27.5646 49.8566 27.5417 49.7773L27.4749 49.527Z" fill="#FF9E81"/>
<g opacity="0.5">
<path d="M19.0235 29.9573C20.2508 29.5359 20.8501 31.1047 20.8501 31.1047C20.8501 31.1047 21.4724 29.5422 22.6921 29.9759C23.9118 30.4082 21.6175 33.5985 20.8311 33.5938C20.0446 33.5907 17.798 30.3786 19.0235 29.9573Z" fill="#FF9E81"/>
</g>
<path d="M15.4374 24.3785C15.4374 24.3785 16.6505 25.5202 20.3389 25.3529C24.0278 25.1856 25.2864 24.1066 25.2864 24.1066C25.2864 24.1066 18.8394 24.5924 15.4374 24.3785" fill="#2B2A2A"/>
<path d="M24.8762 20.973C24.8762 20.973 24.0693 20.9813 21.8719 21.0903C19.6752 21.1992 17.6982 21.8092 17.6982 21.8092C17.6982 21.8092 19.5024 20.0825 21.9982 19.8264C24.4939 19.5703 24.8762 20.973 24.8762 20.973Z" fill="#2B2A2A"/>
<path d="M36.4369 58.0642C30.1322 59.1167 22.1231 63.4016 20.6972 72.4501C19.2733 81.4987 26.2517 84.8631 26.2517 84.8631C26.2517 84.8631 30.953 105.051 30.6686 111.78C30.3823 118.509 27.8188 125.468 31.2374 140.204C34.656 154.938 30.953 178.719 30.953 178.719C30.953 178.719 21.5523 183.247 11.8673 185.566C2.18222 187.886 -0.383155 188.001 0.0444076 188.814H3.60616C3.60616 188.814 2.46663 190.322 10.869 189.974C19.2733 189.626 38.7866 188.931 40.3536 185.566C41.9207 182.202 43.7722 150.412 45.7669 143.219C47.7615 136.028 47.6165 123.613 44.1979 112.36C40.7793 101.107 45.9406 90.4322 47.0629 76.0462C48.1872 61.6603 38.5231 57.7159 36.4369 58.0642Z" fill="#FF9E81"/>
<path d="M20.6975 72.45C22.1233 63.4015 30.1325 59.1166 36.4372 58.0641C38.5234 57.7158 48.1875 61.6601 47.0632 76.0461C45.9409 90.4321 40.7796 101.107 44.1982 112.36C47.6168 123.613 47.7618 136.028 45.7672 143.218C43.7725 150.412 41.921 182.202 40.3539 185.566L30.9533 178.719C30.9533 178.719 34.6563 154.938 31.2377 140.204C27.8191 125.468 30.3826 118.509 30.6689 111.78C30.9533 105.051 26.252 84.863 26.252 84.863C26.252 84.863 19.2736 81.4986 20.6975 72.45Z" fill="#EDEDED"/>
<path d="M95.5656 111.651C84.9452 113.532 79.406 114.659 73.0956 113.908C68.4803 125.191 50.3184 135.219 50.3184 135.219C99.7228 164.05 206.379 176.714 222.074 173.705C237.774 170.695 322.731 187.244 322.731 187.244C326.425 180.851 322.731 172.953 322.731 172.953C311.649 171.824 280.252 166.934 259.937 157.157C245.989 150.445 230.738 151.886 220.901 153.327C216.411 153.985 213.048 154.643 211.456 154.523C206.379 154.148 131.58 125.567 131.58 125.567C124.168 113.008 115.802 110.065 107.953 110.065C103.579 110.065 99.3659 110.978 95.5656 111.651Z" fill="url(#paint0_linear_0_106)"/>
<path d="M63.5151 84.2167C64.4771 75.4402 73.097 53.1267 49.6326 51.4243L30.6863 54.8431C27.9663 55.3344 25.7139 56.8674 24.6431 58.9616C21.3104 65.4682 13.62 79.7484 7.53298 85.4698C-0.470464 92.9916 16.3209 96.779 19.5372 101.767C23.5761 108.032 37.0335 132.048 51.5 133.553C51.5 133.553 68.8827 125.323 73.5 114.041C73.5 114.041 62.553 92.9916 63.5151 84.2167Z" fill="#E6E0F1"/>
<path d="M51.9344 52.7515C45.1239 53.8865 36.4658 58.5181 34.9273 68.2958C33.3888 78.0735 40.9284 81.7085 40.9284 81.7085C40.9284 81.7085 46.0096 103.521 45.7004 110.793C45.393 118.063 42.6234 125.585 46.3169 141.505C50.0103 157.426 46.0096 183.124 46.0096 183.124C46.0096 183.124 35.8511 188.013 25.3854 190.521C14.9197 193.029 12.15 193.153 12.612 194.03H16.46C16.46 194.03 15.2289 195.661 24.3069 195.285C33.3888 194.909 54.473 194.156 56.1661 190.521C57.8592 186.885 59.8595 152.538 62.0145 144.765C64.1695 136.993 64.0149 123.579 60.3234 111.418C56.628 99.2599 62.2035 87.7269 63.4175 72.1811C64.6314 56.6368 51.9344 52.7515 51.9344 52.7515Z" fill="#FFBC9F"/>
<path d="M33.9087 68.8699C35.5233 59.0975 44.6099 54.4685 51.7574 53.3342C51.7574 53.3342 65.0828 57.2173 63.8088 72.753C62.5347 88.2902 56.6833 99.8169 60.5615 111.968C64.4358 124.123 64.598 137.529 62.3364 145.297C60.0748 153.065 57.9754 187.393 56.1985 191.028L45.5394 183.635C45.5394 183.635 49.7382 157.951 45.8619 142.039C41.9857 126.127 44.8924 118.609 45.2149 111.344C45.5394 104.076 40.2068 82.2752 40.2068 82.2752C40.2068 82.2752 32.2941 78.6422 33.9087 68.8699Z" fill="#E6E0F1"/>
<path d="M37.2059 68.8784C38.7444 59.1007 47.4025 54.4691 54.213 53.3341C48.0242 54.0685 35.2408 57.0794 33.6179 63.2481C31.5893 70.959 33.1671 78.5687 39.7036 82.2911C42.4621 89.8528 47.979 106.256 47.979 111.375C48.2882 104.104 43.2071 82.2911 43.2071 82.2911C43.2071 82.2911 35.6675 78.6561 37.2059 68.8784Z" fill="#EDEDED"/>
<path d="M58.399 113.863C58.399 113.863 59.3209 117.249 56.5513 118.376" stroke="#EDEDED" stroke-width="1.33333" stroke-miterlimit="10" stroke-linecap="round" stroke-linejoin="round"/>
<path d="M22.6472 38.8257C13.7523 39.1858 14.0821 39.3809 13.11 39.1972C12.7 39.1198 12.9138 37.878 13.11 37.7241C14.1391 36.9167 15.4345 39.1174 22.6472 38.8257Z" fill="#FF9E81"/>
<path d="M14.9839 42.1348C15.059 41.9512 15.615 41.6942 17.2379 42.1348" stroke="#FF9E81"/>
<path d="M124.84 62.6732C123.602 52.172 109.482 43.6705 109.482 43.6705C124.84 44.67 131.183 60.1695 131.183 60.1695L132.617 58.3385C132.617 51.668 123.199 40.1673 103.346 37.8323C83.4908 35.505 77.7668 34.5055 68.5575 31.0023C59.3473 27.4991 60.5744 18.9976 48.4965 10.1594C36.4196 1.33031 28.2405 2.32981 28.2405 2.32981C26.9094 2.27941 25.7854 2.60699 24.9605 2.96815C24.1243 2.60699 23.0106 2.27941 21.6804 2.32981C10.1252 9.00012 17.8238 14.0582 23.1175 15.7534L32.1136 27.8149C34.5771 31.9284 39.961 33.1784 43.9848 30.5711L46.539 28.9161C49.0784 34.3527 41.8559 33.5808 44.5105 41.7679C45.7066 41.9611 48.3422 67.4707 60.739 87.8424C78.4265 89.7406 78.9949 89.5139 78.9949 89.5139C79.9951 87.1873 80.4282 83.6757 80.4282 83.6757C82.2646 86.0107 82.6762 89.5139 82.6762 89.5139L87.0296 88.6824C88.7207 85.8427 88.6063 81.0124 88.6063 81.0124C89.6385 83.1802 91.2677 87.8425 91.2677 87.8425C95.5686 87.1782 105.191 84.6752 108.544 79.8442C111.896 75.0055 110.71 71.0067 110.71 71.0067C111.494 72.0398 111.978 73.1997 112.276 74.2664C112.855 76.299 112.762 78.0132 112.762 78.0132C112.762 78.0132 126.066 73.1745 124.84 62.6732Z" fill="url(#paint1_linear_0_106)"/>
<path d="M112.291 74.1645C111.993 73.0978 111.507 71.938 110.723 70.9049C110.723 70.9049 111.91 74.9036 108.558 79.7431C105.205 84.5734 95.5828 87.0771 91.2819 87.7406C91.2819 87.7406 89.6526 83.0783 88.6205 80.9106C88.6205 80.9106 88.734 85.7409 87.0428 88.5805L82.6903 89.4121C82.6903 89.4121 82.2779 85.9088 80.4414 83.5739C80.4414 83.5739 80.0083 87.0855 79.0081 89.4121C79.0081 89.4121 67.0622 94.9176 46.3215 93.486L61.4376 87.7406C61.4376 87.7406 38.4737 48.8897 44.961 35.8931C47.5183 39.1275 63.2283 58.7406 77.3789 59.7149C91.5191 60.6984 96.5315 65.2347 96.5315 65.2347L98.007 63.8068C95.356 59.7569 85.3105 58.0183 85.3105 58.0183C85.3105 58.0183 103.606 55.3802 109.816 63.5877C112.725 67.4269 112.909 71.2157 112.291 74.1645Z" fill="url(#paint2_linear_0_106)"/>
<path d="M22.4552 22.8122C24.945 19.3097 26.4712 16.6266 27.4011 14.7184C28.2007 16.606 29.8112 19.7488 32.9957 24.2286C38.6231 32.1467 44.6611 34.3969 44.6611 34.3969L46.4 33.9808C46.4 33.9808 39.8511 28.7298 37.2929 24.0614C37.2929 24.0614 41.7953 29.0627 45.4794 31.3129C47.2646 32.4036 48.627 32.6919 49.5573 32.6993C47.5821 33.2297 44.3759 34.6049 44.6611 37.9125C68.8537 60.8611 85.7585 60.8611 85.7585 60.8611C85.7585 60.8611 67.3781 49.2481 67.2759 38.8301C67.1737 28.4105 60.7394 15.3968 50.1457 7.80344C38.8759 -0.274601 32.9957 -0.825737 25.718 1.23963C13.9064 0.323353 10.4848 13.2657 10.2504 19.8514L14.1173 21.5694L19.0388 14.7184L15.875 21.5694L22.4552 22.8122Z" fill="url(#paint3_linear_0_106)"/>
<path d="M60.2888 93.5406C59.4624 96.1109 58.1701 102.61 59.6126 108.044" stroke="#EDEDED"/>
<path d="M32.3392 87.8491C31.062 90.4806 27.3805 96.1107 22.8726 97.5795C25.7276 96.9063 31.618 94.0178 32.3392 87.8491Z" fill="#D9D9D9"/>
<defs>
<linearGradient id="paint0_linear_0_106" x1="187.345" y1="187.243" x2="187.345" y2="110.065" gradientUnits="userSpaceOnUse">
<stop stop-color="#6D2E55"/>
<stop offset="0.334039" stop-color="#6D2E55"/>
<stop offset="1" stop-color="#001226"/>
</linearGradient>
<linearGradient id="paint1_linear_0_106" x1="15.6596" y1="-16.4311" x2="113.329" y2="97.9064" gradientUnits="userSpaceOnUse">
<stop stop-color="#6D2E55"/>
<stop offset="0.334039" stop-color="#6D2E55"/>
<stop offset="1" stop-color="#001226"/>
</linearGradient>
<linearGradient id="paint2_linear_0_106" x1="43.6087" y1="16.9828" x2="72.3453" y2="109.785" gradientUnits="userSpaceOnUse">
<stop stop-color="#6D2E55"/>
<stop offset="0.334039" stop-color="#6D2E55"/>
<stop offset="1" stop-color="#001226"/>
</linearGradient>
<linearGradient id="paint3_linear_0_106" x1="58.6821" y1="25.6704" x2="-5.15566" y2="25.6704" gradientUnits="userSpaceOnUse">
<stop stop-color="#6D2E55"/>
<stop offset="0.334039" stop-color="#6D2E55"/>
<stop offset="1" stop-color="#001226"/>
</linearGradient>
</defs>
</svg>
